<svg id="Capa_1" enable-background="new 0 0 512 512" height="512" viewBox="0 0 512 512" width="512" xmlns="http://www.w3.org/2000/svg"><path d="m475.13 162.893h-32.92l-19.6-19.6 13.85-55.4-18.75-75h-56.71v68.79l-17.96 17.96-42.04-21.02v-65.73h-84.27l-30 60h-14.52l-36.21-36.21-45 45v51.21h-21.21l-30 30h-39.79v108.65l31 60v41.35h51.21l30-30h30l30-30h74.52l9.27 18.54 20.73 41.46h33.06l30 30h42.42l30-30h30l38.79-38.79v-29.85l31-30v-40.01z" fill="#bce339"/><g fill="#8dbc42"><path d="m512 234.243v40.01l-31 30v29.85l-38.79 38.79h-30l-30 30h-42.42l-30-30h-33.06l-20.73-41.46v-318.54h45v65.73l42.04 21.02 17.96-17.96v-68.79h56.71l18.75 75-13.85 55.4 19.6 19.6h32.92z"/><path d="m406 499.107-51.213-51.213 45-45h51.213v51.213z"/></g></svg>